<svg xmlns="http://www.w3.org/2000/svg" viewBox="0 0 1080 1350" width="1080" height="1350" role="img"><title>Saring Sebelum Sebar - Saring Sebelum Sebar</title><rect x="0" y="0" width="1080" height="1350" fill="#EEF3F2"/><rect x="0" y="0" width="1080" height="300" fill="#0F4C5C"/><circle cx="945" cy="120" r="180" fill="#0A3742" opacity="0.45"/><path d="M0 260 C210 218 345 318 540 270 C760 214 870 254 1080 224 L1080 342 L0 342 Z" fill="#0A3742" opacity="0.55"/><rect x="60" y="56" width="495" height="58" rx="29" fill="#6B4EFF"/><text x="307.5" y="96" font-family="'DejaVu Sans', Arial, sans-serif" font-size="28" font-weight="700" fill="#FBFCFB" text-anchor="middle"><tspan x="307.5" dy="0">P3 / Saring Sebelum Sebar</tspan></text><text x="60" y="166" font-family="'DejaVu Sans', Arial, sans-serif" font-size="28" font-weight="700" fill="#9FE1CB" text-anchor="start"><tspan x="60" dy="0">Saring Sebelum Sebar</tspan></text><text x="60" y="234" font-family="'DejaVu Sans', Arial, sans-serif" font-size="64" font-weight="700" fill="#FBFCFB" text-anchor="start"><tspan x="60" dy="0">Saring Sebelum Sebar</tspan></text><rect x="60" y="380" width="960" height="642" rx="22" fill="#FBFCFB"/><rect x="60" y="380" width="16" height="642" fill="#6B4EFF"/><text x="118" y="504" font-family="'DejaVu Sans', Arial, sans-serif" font-size="68" font-weight="700" fill="#0A3742" text-anchor="start"><tspan x="118" dy="0">Gempa tidak bisa</tspan><tspan x="118" dy="80">diprediksi tanggal dan</tspan><tspan x="118" dy="80">jamnya.</tspan></text><text x="118" y="820" font-family="'DejaVu Sans', Arial, sans-serif" font-size="34" font-weight="400" fill="#293635" text-anchor="start"><tspan x="118" dy="0">Ikuti info resmi. Abaikan pesan</tspan><tspan x="118" dy="44">berantai yang mengklaim waktu gempa</tspan><tspan x="118" dy="44">berikutnya.</tspan></text><text x="118" y="960" font-family="'DejaVu Sans', Arial, sans-serif" font-size="28" font-weight="700" fill="#412402" text-anchor="start"><tspan x="118" dy="0">Rujukan: BMKG</tspan></text><rect x="0" y="1232" width="1080" height="118" fill="#0A3742"/><text x="60" y="1278" font-family="'DejaVu Sans', Arial, sans-serif" font-size="26" font-weight="400" fill="#7FB7B8" text-anchor="start"><tspan x="60" dy="0">Notifikasi cepat — bukan peringatan dini.</tspan></text><text x="60" y="1314" font-family="'DejaVu Sans', Arial, sans-serif" font-size="26" font-weight="400" fill="#7FB7B8" text-anchor="start"><tspan x="60" dy="0">Selalu ikuti arahan resmi BMKG.</tspan></text><text x="1020" y="1298" font-family="'DejaVu Sans', Arial, sans-serif" font-size="30" font-weight="700" fill="#FBFCFB" text-anchor="end"><tspan x="1020" dy="0">@infogempapalu</tspan></text></svg>