<svg xmlns="http://www.w3.org/2000/svg" viewBox="0 0 720 520" role="img" aria-label="Emergency backpack with practical household supplies">
  <g fill="#FBFCFB" stroke="#148A87" stroke-width="12" stroke-linejoin="round">
    <path d="M46 252h92l12 178H34Z"/>
    <path d="M62 210h60v42H62Z" fill="#7FB7B8"/>
    <rect x="560" y="288" width="112" height="142" rx="12"/>
    <path d="M586 246h60v42h-60Z" fill="#7FB7B8"/>
    <rect x="526" y="72" width="154" height="122" rx="18"/>
    <rect x="44" y="62" width="126" height="128" rx="14"/>
  </g>
  <path d="M603 104v58m-29-29h58" stroke="#0F4C5C" stroke-width="16" stroke-linecap="round"/>
  <path d="M78 100h58M78 134h58" stroke="#0F4C5C" stroke-width="14" stroke-linecap="round"/>
  <g transform="translate(205 58) scale(.61)" fill="#0F4C5C">
    <path d="M500.87 345.6c6.146 0 11.13-4.983 11.13-11.13v-10.574c0-19.025-15.478-34.504-34.504-34.504h-32.278V32.557C445.217 14.605 430.613 0 412.661 0h-23.93c-17.952 0-32.557 14.605-32.557 32.557v23.412c-12.863-5.454-26.464-8.997-40.524-10.537a145 145 0 0 0-16.243-.91h-86.817c-19.993 0-39.087 4.04-56.764 11.447V32.557C155.826 14.605 141.221 0 123.27 0H99.34C81.388 0 66.783 14.605 66.783 32.557v256.834H34.504C15.479 289.391 0 304.87 0 323.896v132.452c0 6.147 4.983 11.13 11.13 11.13h55.652v6.122c0 21.173 17.227 38.4 38.4 38.4h301.635c21.173 0 38.4-17.227 38.4-38.4v-6.122h55.652c6.146 0 11.13-4.983 11.13-11.13v-55.652c0-6.147-4.984-11.13-11.13-11.13s-11.13 4.983-11.13 11.13v44.522h-44.522V311.652h32.278c6.751 0 12.243 5.493 12.243 12.243v10.574c0 6.148 4.984 11.131 11.131 11.131zM196.593 67.818a129 129 0 0 1 16-.935h86.817c5.42 0 10.752.318 15.997.934 19.771 2.568 38.086 9.829 53.794 20.624l-55.133 223.212h-24.676v-33.391c0-6.147-4.984-11.13-11.13-11.13H233.74c-6.147 0-11.13 4.983-11.13 11.13v33.391h-24.675L142.801 88.44c15.709-10.793 34.023-18.056 53.792-20.622zm37.146 310.617h44.522c6.146 0 11.13-4.983 11.13-11.13v-33.391h33.391c5.12 0 9.578-3.492 10.805-8.461l22.586-91.441v166.685H155.826V234.012l22.586 91.44c1.228 4.97 5.687 8.461 10.805 8.461h33.391v33.391c.001 6.148 4.984 11.131 11.131 11.131zm11.131-22.261v-66.782h22.261v66.782H244.87zM99.339 22.261h23.93c5.678 0 10.296 4.618 10.296 10.296v35.227C106.031 85.655 89.044 116.11 89.044 190.33V32.557c0-5.678 4.617-10.296 10.295-10.296zM66.783 445.217H22.261V323.896c0-6.751 5.493-12.243 12.243-12.243h32.278v133.565zm356.174 28.383c0 8.899-7.24 16.139-16.139 16.139H105.183c-8.899 0-16.139-7.24-16.139-16.139v-6.122h333.913v6.122zm0-28.382H89.044V190.33c0-31.618 11.758-60.523 31.133-82.587l13.42 54.28v249.803c0 6.147 4.983 11.13 11.13 11.13h222.609c6.146 0 11.13-4.983 11.13-11.13V162.023l13.42-54.28c19.374 22.064 31.132 50.969 31.132 82.587v254.888h-.001zM378.435 67.784V32.557c0-5.678 4.618-10.296 10.296-10.296h23.93c5.678 0 10.296 4.618 10.296 10.296V190.33c0-74.22-16.987-104.675-44.522-122.546z"/>
  </g>
  <path d="M20 466h680" stroke="#7FB7B8" stroke-width="12" stroke-linecap="round" opacity=".45"/>
</svg>
