<svg xmlns="http://www.w3.org/2000/svg" viewBox="0 0 72 72" role="img" aria-label="Person covered beneath a sturdy table">
  <path fill="#0F4C5C" d="M64.166 18.937H7.657v4.285h3.501v31.117h4.285V23.222h41.241v31.117h4.285V23.222h3.197z"/>
  <path fill="#9FE1CB" d="M58.56 44.199H47.395l-3.159-6.805c-1.209-2.844-3.035-4.015-6.479-3.738l-10.695 1.062c-4.816.535-6.704 3.54-6.704 5.835a5.327 5.327 0 0 0 3.417 5.352l6.269 1.915v.966l-4.907.66h-3.169c-2.141 0-3.187.817-3.187 2.652v2.241h11.263c3.211-.153 5.835-2.253 5.835-5.235 0-2.37-.693-3.875-3.365-5.211l-2.164-.994c3.103-.071 7.336-1.823 9.392-2.287l2.302 4.428c1.222 2.829 2.063 4.052 4.433 4.052l12.284-.465c1.678-.082 2.709-.655 2.709-2.337 0-1.376-1.152-2.091-2.911-2.091z"/>
  <circle cx="49.141" cy="33.018" r="3.543" fill="#9FE1CB"/>
  <g fill="none" stroke="#0A3742" stroke-width="2" stroke-linecap="round" stroke-linejoin="round">
    <path d="M30.044 47.82v.966l-4.907.66h-3.169c-2.141 0-3.187.817-3.187 2.652v2.241h11.263c3.211-.153 5.835-2.253 5.835-5.235"/>
    <path d="m38.605 37.674 3.439 7.366c1.222 2.829 2.063 4.052 4.433 4.052l12.284-.465c1.678-.082 2.709-.655 2.709-2.337 0-1.376-1.152-2.091-2.911-2.091H47.395l-3.159-6.805c-1.209-2.844-3.035-4.015-6.479-3.738l-10.695 1.062c-4.816.535-6.704 3.54-6.704 5.835a5.327 5.327 0 0 0 3.417 5.352"/>
    <path d="M28.04 42.899c4.57 0 9.856-1.874 11.913-2.338"/>
    <path d="M45.597 33.018a3.544 3.544 0 1 1 3.544 3.543"/>
  </g>
</svg>
