<svg xmlns="http://www.w3.org/2000/svg" viewBox="0 0 1080 1350" width="1080" height="1350" role="img"><title>Siap Sebelum Bencana - Isi Tas Siaga Keluarga</title><rect x="0" y="0" width="1080" height="1350" fill="#EEF3F2"/><rect x="0" y="0" width="1080" height="300" fill="#0F4C5C"/><circle cx="945" cy="120" r="180" fill="#0A3742" opacity="0.45"/><path d="M0 260 C210 218 345 318 540 270 C760 214 870 254 1080 224 L1080 342 L0 342 Z" fill="#0A3742" opacity="0.55"/><rect x="60" y="56" width="495" height="58" rx="29" fill="#148A87"/><text x="307.5" y="96" font-family="'DejaVu Sans', Arial, sans-serif" font-size="28" font-weight="700" fill="#FBFCFB" text-anchor="middle"><tspan x="307.5" dy="0">P2 / Siap Sebelum Bencana</tspan></text><text x="60" y="166" font-family="'DejaVu Sans', Arial, sans-serif" font-size="28" font-weight="700" fill="#9FE1CB" text-anchor="start"><tspan x="60" dy="0">Siap Sebelum Bencana</tspan></text><text x="60" y="234" font-family="'DejaVu Sans', Arial, sans-serif" font-size="64" font-weight="700" fill="#FBFCFB" text-anchor="start"><tspan x="60" dy="0">Isi Tas Siaga Keluarga</tspan></text><rect x="60" y="356" width="960" height="730" rx="18" fill="#FBFCFB"/><circle cx="122" cy="420" r="26" fill="#148A87"/><path d="M110 420 L120 432 L138 410" fill="none" stroke="#FBFCFB" stroke-width="8" stroke-linecap="round" stroke-linejoin="round"/><text x="174" y="430" font-family="'DejaVu Sans', Arial, sans-serif" font-size="32" font-weight="600" fill="#0A3742" text-anchor="start"><tspan x="174" dy="0">Air minum dan makanan ringan.</tspan></text><circle cx="122" cy="552" r="26" fill="#148A87"/><path d="M110 552 L120 564 L138 542" fill="none" stroke="#FBFCFB" stroke-width="8" stroke-linecap="round" stroke-linejoin="round"/><text x="174" y="562" font-family="'DejaVu Sans', Arial, sans-serif" font-size="32" font-weight="600" fill="#0A3742" text-anchor="start"><tspan x="174" dy="0">Obat pribadi dan P3K sederhana.</tspan></text><circle cx="122" cy="684" r="26" fill="#148A87"/><path d="M110 684 L120 696 L138 674" fill="none" stroke="#FBFCFB" stroke-width="8" stroke-linecap="round" stroke-linejoin="round"/><text x="174" y="694" font-family="'DejaVu Sans', Arial, sans-serif" font-size="32" font-weight="600" fill="#0A3742" text-anchor="start"><tspan x="174" dy="0">Senter, peluit, dan power bank.</tspan></text><circle cx="122" cy="816" r="26" fill="#148A87"/><path d="M110 816 L120 828 L138 806" fill="none" stroke="#FBFCFB" stroke-width="8" stroke-linecap="round" stroke-linejoin="round"/><text x="174" y="826" font-family="'DejaVu Sans', Arial, sans-serif" font-size="32" font-weight="600" fill="#0A3742" text-anchor="start"><tspan x="174" dy="0">Salinan dokumen penting.</tspan></text><circle cx="122" cy="948" r="26" fill="#148A87"/><path d="M110 948 L120 960 L138 938" fill="none" stroke="#FBFCFB" stroke-width="8" stroke-linecap="round" stroke-linejoin="round"/><text x="174" y="958" font-family="'DejaVu Sans', Arial, sans-serif" font-size="32" font-weight="600" fill="#0A3742" text-anchor="start"><tspan x="174" dy="0">Nomor keluarga dan kontak darurat.</tspan></text><rect x="0" y="1232" width="1080" height="118" fill="#0A3742"/><text x="60" y="1278" font-family="'DejaVu Sans', Arial, sans-serif" font-size="26" font-weight="400" fill="#7FB7B8" text-anchor="start"><tspan x="60" dy="0">Notifikasi cepat — bukan peringatan dini.</tspan></text><text x="60" y="1314" font-family="'DejaVu Sans', Arial, sans-serif" font-size="26" font-weight="400" fill="#7FB7B8" text-anchor="start"><tspan x="60" dy="0">Selalu ikuti arahan resmi BMKG.</tspan></text><text x="1020" y="1298" font-family="'DejaVu Sans', Arial, sans-serif" font-size="30" font-weight="700" fill="#FBFCFB" text-anchor="end"><tspan x="1020" dy="0">@infogempapalu</tspan></text></svg>