<svg xmlns="http://www.w3.org/2000/svg" viewBox="0 0 1080 1350" width="1080" height="1350" role="img"><title>Saring Sebelum Sebar - Gempa tidak bisa diprediksi tanggal dan jamnya.</title><rect x="0" y="0" width="1080" height="1350" fill="#0A3742"/><circle cx="540" cy="980" r="490" fill="none" stroke="#7FB7B8" stroke-width="3" opacity="0.12"/><circle cx="540" cy="980" r="390" fill="none" stroke="#7FB7B8" stroke-width="3" opacity="0.10"/><circle cx="540" cy="980" r="290" fill="none" stroke="#7FB7B8" stroke-width="3" opacity="0.08"/><path d="M0 884 L230 620 L380 805 L610 392 L820 760 L1080 548 L1080 1232 L0 1232 Z" fill="#0F4C5C" opacity="0.34"/><circle cx="76" cy="56" r="18" fill="none" stroke="#7FB7B8" stroke-width="3"/><path d="M64 56 L70 56 L74 45 L80 67 L85 52 L91 52" fill="none" stroke="#C77B0A" stroke-width="4" stroke-linecap="round" stroke-linejoin="round"/><text x="108" y="64" font-family="'DejaVu Sans'" font-size="23" font-weight="700" fill="#FBFCFB" text-anchor="start"><tspan x="108" dy="0">PALU EARTHQUAKE ALERTS</tspan></text><rect x="60" y="116" width="450" height="52" rx="26" fill="#6B4EFF"/><text x="285" y="152" font-family="'DejaVu Sans'" font-size="26" font-weight="700" fill="#FBFCFB" text-anchor="middle"><tspan x="285" dy="0">P3 / Saring Sebelum Sebar</tspan></text><text x="60" y="570" font-family="'DejaVu Sans'" font-size="78" font-weight="700" text-anchor="start"><tspan x="60" dy="0" fill="#FBFCFB">Gempa tidak bisa</tspan><tspan x="60" dy="90" fill="#FBFCFB">diprediksi tanggal</tspan><tspan x="60" dy="90" fill="#6B4EFF">dan jamnya.</tspan></text><text x="60" y="922" font-family="'DejaVu Sans'" font-size="34" font-weight="400" fill="#9FE1CB" text-anchor="start"><tspan x="60" dy="0">Ikuti info resmi. Abaikan pesan</tspan><tspan x="60" dy="46">berantai yang mengklaim waktu gempa</tspan><tspan x="60" dy="46">berikutnya.</tspan></text><text x="60" y="1112" font-family="'DejaVu Sans'" font-size="29" font-weight="700" fill="#7FB7B8" text-anchor="start"><tspan x="60" dy="0">Rujukan: BMKG</tspan></text><rect x="0" y="1232" width="1080" height="118" fill="#0A3742"/><rect x="0" y="1232" width="1080" height="3" fill="#C77B0A"/><text x="60" y="1278" font-family="'DejaVu Sans'" font-size="27" font-weight="400" fill="#9FE1CB" text-anchor="start"><tspan x="60" dy="0">Notifikasi cepat — bukan peringatan dini.</tspan></text><text x="60" y="1314" font-family="'DejaVu Sans'" font-size="27" font-weight="400" fill="#9FE1CB" text-anchor="start"><tspan x="60" dy="0">Selalu ikuti arahan resmi BMKG.</tspan></text><text x="1020" y="1299" font-family="'DejaVu Sans'" font-size="30" font-weight="700" fill="#FBFCFB" text-anchor="end"><tspan x="1020" dy="0">@infogempapalu</tspan></text></svg>