<svg xmlns="http://www.w3.org/2000/svg" viewBox="0 0 1080 1350" width="1080" height="1350" role="img"><title>Siap Sebelum Bencana - Saat Gempa: 3 Langkah</title><rect x="0" y="0" width="1080" height="1350" fill="#EEF3F2"/><rect x="0" y="0" width="1080" height="326" fill="#0F4C5C"/><circle cx="970" cy="82" r="210" fill="none" stroke="#7FB7B8" stroke-width="3" opacity="0.18"/><circle cx="970" cy="82" r="150" fill="none" stroke="#7FB7B8" stroke-width="3" opacity="0.14"/><path d="M0 284 L180 210 L335 292 L520 172 L700 290 L870 205 L1080 278 L1080 326 L0 326 Z" fill="#0A3742" opacity="0.58"/><circle cx="76" cy="40" r="18" fill="none" stroke="#7FB7B8" stroke-width="3"/><path d="M64 40 L70 40 L74 29 L80 51 L85 36 L91 36" fill="none" stroke="#C77B0A" stroke-width="4" stroke-linecap="round" stroke-linejoin="round"/><text x="108" y="48" font-family="'DejaVu Sans'" font-size="23" font-weight="700" fill="#FBFCFB" text-anchor="start"><tspan x="108" dy="0">PALU EARTHQUAKE ALERTS</tspan></text><rect x="60" y="72" width="450" height="52" rx="26" fill="#148A87"/><text x="285" y="108" font-family="'DejaVu Sans'" font-size="26" font-weight="700" fill="#FBFCFB" text-anchor="middle"><tspan x="285" dy="0">P2 / Siap Sebelum Bencana</tspan></text><text x="60" y="206" font-family="'DejaVu Sans'" font-size="64" font-weight="700" fill="#FBFCFB" text-anchor="start"><tspan x="60" dy="0">Saat Gempa: 3 Langkah</tspan></text><rect x="60" y="358" width="960" height="264" rx="12" fill="#FBFCFB"/><rect x="60" y="358" width="10" height="264" rx="5" fill="#148A87"/><circle cx="124" cy="490" r="38" fill="#148A87"/><text x="124" y="502" font-family="'DejaVu Sans'" font-size="32" font-weight="700" fill="#FBFCFB" text-anchor="middle"><tspan x="124" dy="0">1</tspan></text><text x="190" y="484" font-family="'DejaVu Sans'" font-size="35" font-weight="700" fill="#0A3742" text-anchor="start"><tspan x="190" dy="0">Merunduk</tspan></text><text x="190" y="530" font-family="'DejaVu Sans'" font-size="30" font-weight="400" fill="#293635" text-anchor="start"><tspan x="190" dy="0">Turun ke lantai sebelum terjatuh.</tspan></text><rect x="60" y="646" width="960" height="264" rx="12" fill="#FBFCFB"/><rect x="60" y="646" width="10" height="264" rx="5" fill="#148A87"/><circle cx="124" cy="778" r="38" fill="#148A87"/><text x="124" y="790" font-family="'DejaVu Sans'" font-size="32" font-weight="700" fill="#FBFCFB" text-anchor="middle"><tspan x="124" dy="0">2</tspan></text><text x="190" y="772" font-family="'DejaVu Sans'" font-size="35" font-weight="700" fill="#0A3742" text-anchor="start"><tspan x="190" dy="0">Lindungi</tspan></text><text x="190" y="818" font-family="'DejaVu Sans'" font-size="30" font-weight="400" fill="#293635" text-anchor="start"><tspan x="190" dy="0">Jaga kepala dan leher dari benda jatuh.</tspan></text><rect x="60" y="934" width="960" height="264" rx="12" fill="#FBFCFB"/><rect x="60" y="934" width="10" height="264" rx="5" fill="#148A87"/><circle cx="124" cy="1066" r="38" fill="#148A87"/><text x="124" y="1078" font-family="'DejaVu Sans'" font-size="32" font-weight="700" fill="#FBFCFB" text-anchor="middle"><tspan x="124" dy="0">3</tspan></text><text x="190" y="1060" font-family="'DejaVu Sans'" font-size="35" font-weight="700" fill="#0A3742" text-anchor="start"><tspan x="190" dy="0">Berpegangan</tspan></text><text x="190" y="1106" font-family="'DejaVu Sans'" font-size="30" font-weight="400" fill="#293635" text-anchor="start"><tspan x="190" dy="0">Tahan sampai guncangan berhenti.</tspan></text><rect x="0" y="1232" width="1080" height="118" fill="#0A3742"/><rect x="0" y="1232" width="1080" height="3" fill="#C77B0A"/><text x="60" y="1278" font-family="'DejaVu Sans'" font-size="27" font-weight="400" fill="#9FE1CB" text-anchor="start"><tspan x="60" dy="0">Notifikasi cepat — bukan peringatan dini.</tspan></text><text x="60" y="1314" font-family="'DejaVu Sans'" font-size="27" font-weight="400" fill="#9FE1CB" text-anchor="start"><tspan x="60" dy="0">Selalu ikuti arahan resmi BMKG.</tspan></text><text x="1020" y="1299" font-family="'DejaVu Sans'" font-size="30" font-weight="700" fill="#FBFCFB" text-anchor="end"><tspan x="1020" dy="0">@infogempapalu</tspan></text></svg>